# xmcd
#
# Track frame offsets:
#	150
#	16668
#	36317
#	56430
#	71046
#	87858
#	105076
#	121290
#	135334
#	154645
#	169614
#
# Disc length: 2486 seconds
#
# Revision: 1
# Processed by: cddbd v1.5.2PL0 Copyright (c) Steve Scherf et al.
# Submitted via: EasyCDDAExtractor 16.0.9.1
#
DISCID=7a09b40b
DTITLE=Ricardo Rodriguez - Calma
DYEAR=2011
DGENRE=Latin
TTITLE0=01. Calma
TTITLE1=02. Mi Historia Empieza Aqui
TTITLE2=03. El Puede
TTITLE3=04. Palabras
TTITLE4=05. Nada
TTITLE5=06. Gozo
TTITLE6=07. Hablame
TTITLE7=08. Feliz Cumpleaños
TTITLE8=09. Me Haces Falta
TTITLE9=10. Ahora
TTITLE10=11. No Te Olvides De Mi
EXTD=
EXTT0=
EXTT1=
EXTT2=
EXTT3=
EXTT4=
EXTT5=
EXTT6=
EXTT7=
EXTT8=
EXTT9=
EXTT10=
PLAYORDER=
